<svg id="svg1928" xmlns="http://www.w3.org/2000/svg" viewBox="0 0 1000 1000"><defs><style>.cls-1{fill:#ef0000;}</style></defs><title>cbsi-red</title><path id="path2997-2" class="cls-1" d="M500.76,0C221.82,0,0,224.75,0,498.5,0,775.25,221.82,1000,500.76,1000,781.17,1000,1000,775.25,1000,498.54,1000.05,224.79,781.17,0,500.76,0Zm0,234.58c222.1,1.25,407.53,145.16,478,264C910.47,611,728.52,762.2,500.76,762.2,284.26,762.2,99.48,629,20,498.59,127,351.71,305.36,233.48,500.76,234.58Zm.64,27.79c-130.7,0-237.22,105.81-237.22,235.89A236.77,236.77,0,0,0,501.4,735.48c130.7,0,235.89-105.19,235.89-237.15,0-130.07-105.19-236-235.89-236Z"/></svg>