<?xml version="1.0" encoding="UTF-8" standalone="no"?>
<!-- Created with Inkscape (http://www.inkscape.org/) -->

<svg
   xmlns:dc="http://purl.org/dc/elements/1.1/"
   xmlns:cc="http://creativecommons.org/ns#"
   xmlns:rdf="http://www.w3.org/1999/02/22-rdf-syntax-ns#"
   xmlns:svg="http://www.w3.org/2000/svg"
   xmlns="http://www.w3.org/2000/svg"
   xmlns:sodipodi="http://sodipodi.sourceforge.net/DTD/sodipodi-0.dtd"
   xmlns:inkscape="http://www.inkscape.org/namespaces/inkscape"
   version="1.0"
   width="1000"
   height="1000"
   id="svg1928"
   inkscape:version="0.91 r13725"
   sodipodi:docname="CBS_Eyemark_(Small-Use_Version).svg">
  <metadata
     id="metadata3971">
    <rdf:RDF>
      <cc:Work
         rdf:about="">
        <dc:format>image/svg+xml</dc:format>
        <dc:type
           rdf:resource="http://purl.org/dc/dcmitype/StillImage" />
        <dc:title />
      </cc:Work>
    </rdf:RDF>
  </metadata>
  <sodipodi:namedview
     pagecolor="#ffffff"
     bordercolor="#666666"
     borderopacity="1"
     objecttolerance="10"
     gridtolerance="10"
     guidetolerance="10"
     inkscape:pageopacity="0"
     inkscape:pageshadow="2"
     inkscape:window-width="1366"
     inkscape:window-height="705"
     id="namedview3969"
     showgrid="false"
     inkscape:zoom="0.35355339"
     inkscape:cx="583.92315"
     inkscape:cy="519.98347"
     inkscape:window-x="-8"
     inkscape:window-y="-8"
     inkscape:window-maximized="1"
     inkscape:current-layer="svg1928"
     fit-margin-top="0"
     fit-margin-left="0"
     fit-margin-right="0"
     fit-margin-bottom="0" />
  <defs
     id="defs1931">
    <filter
       inkscape:collect="always"
       id="filter4743"
       x="-0.23999999"
       width="1.48"
       y="-0.23999999"
       height="1.48"
       style="color-interpolation-filters:sRGB">
      <feGaussianBlur
         inkscape:collect="always"
         stdDeviation="18.515625"
         id="feGaussianBlur4745" />
    </filter>
    <clipPath
       clipPathUnits="userSpaceOnUse"
       id="clipPath4749">
      <path
         d="M 92.593754,0 C 41.485799,-9.9999997e-7 0,41.485795 0,92.593752 0,143.70171 41.48579,185.15625 92.593754,185.15625 143.7017,185.15624 185.15625,143.70171 185.15625,92.593752 185.15625,41.485792 143.70171,0 92.593754,0 Z m -3.40625,39.5 c 0.91489,-0.01786 1.83341,-0.01244 2.75,0 30.870236,-0.127652 61.290266,15.768585 78.187496,41.71875 2.26153,3.35523 5.24767,8.747192 6.40625,11.375002 C 166.02852,115.03261 146.03119,132.6595 122.5625,140.53125 92.011544,151.3655 55.798401,144.82379 31.71875,122.90625 22.04685,114.50521 14.58633,103.61079 8.59375,92.593752 11.13919,88.495224 14.01418,82.718616 17.3125,78.375 33.419418,55.072594 60.825712,40.053694 89.187504,39.5 Z m 3.375,8.5625 c -24.574624,0 -44.500007,19.925376 -44.500004,44.500002 0,24.574618 19.92538,44.531238 44.500004,44.531248 24.574616,0 44.531246,-19.95663 44.531246,-44.531248 0,-24.574622 -19.95663,-44.500004 -44.531246,-44.500002 z"
         style="fill:#e6e6e6;filter:url(#filter4743)"
         id="path4751"
         inkscape:connector-curvature="0" />
    </clipPath>
    <clipPath
       clipPathUnits="userSpaceOnUse"
       id="clipPath4753">
      <path
         d="M 92.593754,0 C 41.485799,-9.9999997e-7 0,41.485795 0,92.593752 0,143.70171 41.48579,185.15625 92.593754,185.15625 143.7017,185.15624 185.15625,143.70171 185.15625,92.593752 185.15625,41.485792 143.70171,0 92.593754,0 Z m -3.40625,39.5 c 0.91489,-0.01786 1.83341,-0.01244 2.75,0 30.870236,-0.127652 61.290266,15.768585 78.187496,41.71875 2.26153,3.35523 5.24767,8.747192 6.40625,11.375002 C 166.02852,115.03261 146.03119,132.6595 122.5625,140.53125 92.011544,151.3655 55.798401,144.82379 31.71875,122.90625 22.04685,114.50521 14.58633,103.61079 8.59375,92.593752 11.13919,88.495224 14.01418,82.718616 17.3125,78.375 33.419418,55.072594 60.825712,40.053694 89.187504,39.5 Z m 3.375,8.5625 c -24.574624,0 -44.500007,19.925376 -44.500004,44.500002 0,24.574618 19.92538,44.531238 44.500004,44.531248 24.574616,0 44.531246,-19.95663 44.531246,-44.531248 0,-24.574622 -19.95663,-44.500004 -44.531246,-44.500002 z"
         style="fill:#e6e6e6;filter:url(#filter4743)"
         id="path4755"
         inkscape:connector-curvature="0" />
    </clipPath>
    <filter
       style="color-interpolation-filters:sRGB"
       height="1.48"
       y="-0.23999999"
       width="1.48"
       x="-0.23999999"
       id="filter4743-4"
       inkscape:collect="always">
      <feGaussianBlur
         id="feGaussianBlur4745-7"
         stdDeviation="18.515625"
         inkscape:collect="always" />
    </filter>
    <clipPath
       id="clipPath4749-8"
       clipPathUnits="userSpaceOnUse">
      <path
         inkscape:connector-curvature="0"
         id="path4751-1"
         style="fill:#e6e6e6;filter:url(#filter4743-4)"
         d="M 92.593754,0 C 41.485799,-9.9999997e-7 0,41.485795 0,92.593752 0,143.70171 41.48579,185.15625 92.593754,185.15625 143.7017,185.15624 185.15625,143.70171 185.15625,92.593752 185.15625,41.485792 143.70171,0 92.593754,0 Z m -3.40625,39.5 c 0.91489,-0.01786 1.83341,-0.01244 2.75,0 30.870236,-0.127652 61.290266,15.768585 78.187496,41.71875 2.26153,3.35523 5.24767,8.747192 6.40625,11.375002 C 166.02852,115.03261 146.03119,132.6595 122.5625,140.53125 92.011544,151.3655 55.798401,144.82379 31.71875,122.90625 22.04685,114.50521 14.58633,103.61079 8.59375,92.593752 11.13919,88.495224 14.01418,82.718616 17.3125,78.375 33.419418,55.072594 60.825712,40.053694 89.187504,39.5 Z m 3.375,8.5625 c -24.574624,0 -44.500007,19.925376 -44.500004,44.500002 0,24.574618 19.92538,44.531238 44.500004,44.531248 24.574616,0 44.531246,-19.95663 44.531246,-44.531248 0,-24.574622 -19.95663,-44.500004 -44.531246,-44.500002 z" />
    </clipPath>
    <clipPath
       id="clipPath4753-1"
       clipPathUnits="userSpaceOnUse">
      <path
         inkscape:connector-curvature="0"
         id="path4755-3"
         style="fill:#e6e6e6;filter:url(#filter4743-4)"
         d="M 92.593754,0 C 41.485799,-9.9999997e-7 0,41.485795 0,92.593752 0,143.70171 41.48579,185.15625 92.593754,185.15625 143.7017,185.15624 185.15625,143.70171 185.15625,92.593752 185.15625,41.485792 143.70171,0 92.593754,0 Z m -3.40625,39.5 c 0.91489,-0.01786 1.83341,-0.01244 2.75,0 30.870236,-0.127652 61.290266,15.768585 78.187496,41.71875 2.26153,3.35523 5.24767,8.747192 6.40625,11.375002 C 166.02852,115.03261 146.03119,132.6595 122.5625,140.53125 92.011544,151.3655 55.798401,144.82379 31.71875,122.90625 22.04685,114.50521 14.58633,103.61079 8.59375,92.593752 11.13919,88.495224 14.01418,82.718616 17.3125,78.375 33.419418,55.072594 60.825712,40.053694 89.187504,39.5 Z m 3.375,8.5625 c -24.574624,0 -44.500007,19.925376 -44.500004,44.500002 0,24.574618 19.92538,44.531238 44.500004,44.531248 24.574616,0 44.531246,-19.95663 44.531246,-44.531248 0,-24.574622 -19.95663,-44.500004 -44.531246,-44.500002 z" />
    </clipPath>
  </defs>
  <g
     transform="matrix(8.1902784,0,0,8.8742398,1146.8142,372.34324)"
     id="g3054"
     style="fill:#000000;fill-opacity:1" />
  <path
     style="fill:#6f6f6f;fill-opacity:1"
     d="M 500.76115,0 C 221.8228,0 0,224.74524 0,498.499 0,775.2513 221.8228,1000 500.76115,1000 781.17136,1000 999.99999,775.25009 999.99999,498.54466 1000.0492,224.79091 781.17136,0 500.76115,0 Z m 0,234.58203 C 722.85691,235.83486 908.29189,379.74451 978.79797,498.54466 910.47373,611.00273 728.51728,762.1998 500.76115,762.1998 284.26112,762.1998 99.480088,629.00457 20.021434,498.59339 126.99144,351.71375 305.35531,233.47975 500.76115,234.58203 Z m 0.63938,27.78522 c -130.69907,0 -237.22173,105.81652 -237.22173,235.88818 0,132.03737 106.52266,237.22172 237.22173,237.22172 130.69909,0 235.88816,-105.18883 235.88816,-237.14256 0,-130.07166 -105.18907,-235.96734 -235.88816,-235.96734 z"
     id="path2997-2"
     inkscape:connector-curvature="0"
     sodipodi:nodetypes="ssscsscscssssss" />
</svg>
