<?xml version="1.0" encoding="utf-8"?>
<!-- Generator: Adobe Illustrator 21.1.0, SVG Export Plug-In . SVG Version: 6.00 Build 0)  -->
<svg version="1.1" id="Layer_1" xmlns="http://www.w3.org/2000/svg" xmlns:xlink="http://www.w3.org/1999/xlink" x="0px" y="0px"
	 width="70px" height="70px" viewBox="0 0 70 70" enable-background="new 0 0 70 70" xml:space="preserve">
<path fill="#0033A0" d="M11.905,7.499c-0.177-0.443-0.531-0.177-0.886-0.266c-0.266,0-0.443-0.089-0.531-0.443
	c0-0.354,0.089-0.531,0.531-0.531c0.797,0,1.506,0,2.303,0c3.455,0,6.909,0.089,10.364,0c1.772,0,3.543,0.089,5.226,0.089
	c9.566,0,15.944,6.2,16.121,15.855c0.089,2.923,0.177,5.846-0.797,8.681c-0.266,0.797,0.266,0.62,0.709,0.62c2.746,0,5.58,0,8.326,0
	c2.48,0,4.96,0.266,7.175,1.417c2.746,1.417,4.252,3.632,4.429,6.732c0.089,3.1-1.417,5.315-4.075,6.82
	c-1.063,0.62-2.126,0.974-3.277,1.24c-0.354,0.089-0.797,0.089-0.974,0.531c1.506,0.443,2.923,0.974,4.429,1.506
	c0.443,0.177,0.886,0.443,1.329,0.709c5.758,3.366,5.226,11.515,0,14.615c-2.746,1.594-5.758,2.126-8.858,2.126
	c-5.049,0-10.098,0-15.147,0c-0.354,0-0.974,0.266-0.974-0.531c0-0.709,0.531-0.443,0.886-0.443c0.709,0,1.506,0,2.214,0
	c0.797,0,1.329-0.443,1.417-1.329c0-0.266,0-0.531,0-0.797c0-9.212,0-18.424,0-27.636c0-0.266,0-0.62-0.089-1.063
	c-0.974,0.886-1.86,1.772-2.834,2.48c-2.657,1.949-5.669,3.012-8.858,3.632c-0.531,0.266-1.506-0.62-1.506-1.329
	c0-0.177,0.177-0.266,0.354-0.266c4.872-1.24,6.643-4.872,7.175-9.301c0.531-4.429,0.531-8.946-0.089-13.464
	c-0.354-2.746-1.329-5.226-3.543-7.086c-2.569-2.126-5.492-2.657-8.681-1.594c-0.974,0.443-1.506,1.152-1.417,2.214
	c0,1.86,0,3.72,0,5.58c0,0.443,0,0.974,0,1.417c0,3.632,0,7.175-0.089,10.806c-1.506-2.923-3.012-5.846-4.517-8.769
	c-0.354-0.709-0.709-1.506-1.063-2.214c-1.063-2.037-2.214-4.075-1.86-6.555c0.177-0.797,0.177-1.594,0-2.392
	c-0.177-0.797-0.531-1.152-1.329-1.063c-0.443-0.177-0.797-0.177-1.24,0C12.17,7.322,11.993,7.233,11.905,7.499z M49.373,57.014
	c0,2.48,0,4.96,0,7.529c0,0.797,0.089,1.594,1.152,1.772c3.1,0.354,6.466-0.709,7.441-4.695c0.62-2.569,0.62-5.138,0.177-7.706
	c-0.443-2.746-2.214-4.34-4.872-4.872c-0.974-0.177-2.037-0.266-3.012-0.443c-0.709-0.089-0.974,0.089-0.886,0.886
	C49.373,51.965,49.373,54.445,49.373,57.014z M49.373,40.627c0,2.126,0,4.34,0,6.466c0,0.709,0.177,0.886,0.886,0.797
	c1.24-0.089,2.392-0.177,3.543-0.62c1.86-0.62,2.923-1.86,3.277-3.72c0.443-2.392,0.443-4.783-0.089-7.175
	c-0.443-1.86-1.417-3.277-3.366-3.809c-0.797-0.266-1.594-0.089-2.392-0.089c-1.594,0-1.949,0.354-1.949,1.949
	C49.284,36.553,49.373,38.59,49.373,40.627L49.373,40.627z"/>
<path fill="#F2BE36" d="M11.905,7.499c0.089-0.266,0.266-0.177,0.443-0.089c0.443,0.709,0.354,1.594,0.531,2.392
	c0.443,2.48,1.683,4.695,2.834,6.998c1.506,3.1,3.012,6.112,4.517,9.212c0.531,1.152,1.152,2.214,1.772,3.277
	c1.152,2.126,2.214,4.252,3.277,6.378c2.214,4.252,4.429,8.415,6.643,12.578c1.152,2.126,2.126,4.252,3.277,6.378
	c0.443,0.797,0.354,1.594,0.089,2.392c-0.886,3.012-1.772,6.112-2.746,9.124c-0.089,0.266-0.089,0.709-0.354,0.797
	c-0.354,0.089-0.531-0.354-0.62-0.62c-3.632-6.909-7.263-13.73-10.895-20.55c-0.797-1.594-1.417-3.366-2.48-4.783
	c-1.506-2.214-2.569-4.783-3.897-7.086c-1.506-2.569-2.569-5.315-3.632-8.149c-0.797-2.214-1.506-4.517-1.594-6.909
	c0-3.455,0.709-6.82,2.303-10.009C11.639,8.296,11.727,7.853,11.905,7.499z"/>
<path fill="#F2BE36" d="M17.751,41.424c0.266,0.531,0.443,1.152,0.797,1.594c0.797,1.063,0.62,2.037,0,3.189
	c-1.772,3.543-3.366,7.263-5.049,10.806c-1.683,3.543-3.366,7.086-5.138,10.541c-0.089,0.177-0.177,0.354-0.354,0.62
	c-0.62-1.152-0.886-2.303-1.24-3.366c-0.797-2.303-1.506-4.606-2.392-6.82c-0.443-1.24,0-2.214,0.443-3.189
	c1.949-4.163,3.897-8.238,5.846-12.401c0.089-0.266,0.089-0.531,0.177-0.797c1.86,0,3.809,0,5.669,0
	C16.954,41.69,17.396,41.867,17.751,41.424z"/>
<path fill="#F2BE36" d="M22.445,28.403c0-3.632,0-7.175,0.089-10.806c0-0.443,0-0.974,0-1.417c1.063-1.417,1.417-3.012,1.772-4.695
	c0.266-0.974,0.797-1.86,0.62-2.923c0-0.177,0.089-0.354,0.354-0.443c0.354-0.089,0.531,0.089,0.709,0.354
	c0.62,0.797,0.886,1.772,1.24,2.746c0.974,2.303,1.506,4.783,1.594,7.263c0.177,2.392-0.443,4.695-1.152,6.909
	c-0.531,1.772-1.152,3.455-1.86,5.138c-0.266,0.709-0.531,1.594-1.152,1.683c-0.531,0.089-0.62-0.974-0.974-1.506
	C23.243,29.998,22.8,29.201,22.445,28.403z"/>
<path fill="#F2BE36" d="M23.685,6.17c-3.455,0.177-6.909,0.089-10.364,0c0.354-0.354,0.266-0.886,0.354-1.329
	c0.797-2.214,3.189-2.923,5.138-2.834c2.214,0.089,3.72,1.24,4.606,3.1C23.685,5.462,23.597,5.905,23.685,6.17z"/>
<path fill="#0033A0" d="M17.751,41.424c-0.354,0.443-0.797,0.266-1.24,0.266c-1.86,0-3.809,0-5.669,0
	c-0.531-0.886-0.443-0.974,0.797-1.152c0.443,0,0.886,0.089,1.329,0.089c1.772,0,2.126-0.354,2.126-2.126
	c0-0.531-0.089-1.152,0.089-1.683c0.797,1.152,1.24,2.569,1.949,3.809C17.308,40.981,17.662,41.159,17.751,41.424z"/>
<path fill="#F2BE36" d="M14.828,36.907c-0.177,0.531-0.089,1.152-0.089,1.683c-0.089,1.772-0.443,2.126-2.214,2.126
	c-0.443,0-0.886-0.089-1.329-0.089c0.709-1.86,1.594-3.632,2.569-5.492C14.385,35.667,14.651,36.287,14.828,36.907z"/>
<path fill="#F2BE36" d="M13.588,7.411c0.797-0.089,1.24,0.266,1.329,1.063c0.177,0.797,0.177,1.594,0,2.392
	c-0.62,0.531-0.974,0.354-1.24-0.443C13.588,9.359,13.41,8.385,13.588,7.411z"/>
<path fill="#F2BE36" d="M22.534,10.599c-0.177-1.152,0.354-1.86,1.417-2.214c0.354,0.797,0.089,1.594-0.089,2.303
	C23.508,11.574,22.977,10.511,22.534,10.599z"/>
</svg>
