<?xml version="1.0" encoding="UTF-8" standalone="no"?>
<!-- Generator: Adobe Illustrator 16.0.4, SVG Export Plug-In . SVG Version: 6.00 Build 0)  -->
<svg xmlns:dc="http://purl.org/dc/elements/1.1/" xmlns:cc="http://creativecommons.org/ns#" xmlns:rdf="http://www.w3.org/1999/02/22-rdf-syntax-ns#" xmlns:svg="http://www.w3.org/2000/svg" xmlns="http://www.w3.org/2000/svg" xmlns:sodipodi="http://sodipodi.sourceforge.net/DTD/sodipodi-0.dtd" xmlns:inkscape="http://www.inkscape.org/namespaces/inkscape" version="1.1" id="Artwork" x="0px" y="0px" width="250" height="50.171631" viewBox="0 0 250 50.171631" enable-background="new 0 0 1435.433 283.465" xml:space="preserve" inkscape:version="0.48.5 r10040" sodipodi:docname="lexmark-primary-logo.svg"><metadata id="metadata3017"><rdf:RDF><cc:Work rdf:about=""><dc:format>image/svg+xml</dc:format><dc:type rdf:resource="http://purl.org/dc/dcmitype/StillImage"/></cc:Work></rdf:RDF></metadata><defs id="defs3015"/><sodipodi:namedview pagecolor="#ffffff" bordercolor="#666666" borderopacity="1" objecttolerance="10" gridtolerance="10" guidetolerance="10" inkscape:pageopacity="0" inkscape:pageshadow="2" inkscape:window-width="1054" inkscape:window-height="1034" id="namedview3013" showgrid="false" fit-margin-left="0.5" fit-margin-bottom="0.5" fit-margin-top="0.5" fit-margin-right="0.5" inkscape:zoom="0.21919332" inkscape:cx="1052.97" inkscape:cy="337.28657" inkscape:window-x="862" inkscape:window-y="-20" inkscape:window-maximized="0" inkscape:current-layer="Artwork"/>
<path style="fill:#00c425" d="m 40.047687,0.49999941 -39.547687,0 0,9.62480959 3.623952,14.31286 11.336878,0.64815 9.624617,-9.62439 19.030529,-4.07826 z" id="polygon3009" inkscape:connector-curvature="0" sodipodi:nodetypes="cccccccc"/><path style="fill:#3af23a" d="m 0.5,10.124809 0,39.54682 9.623426,0 16.092894,-1.33739 -1.131024,-13.62396 z" id="polygon3005" inkscape:connector-curvature="0" sodipodi:nodetypes="cccccc"/><path style="fill:#006446" d="m 10.123426,49.671629 39.548207,0 0,-9.62394 -4.205248,-12.80296 -10.756275,-2.15891 z" id="polygon3007" inkscape:connector-curvature="0" sodipodi:nodetypes="cccccc"/>



<path d="m 238.84809,20.007229 -8.69434,7.91217 8.69434,7.96057 v 4.58456 h -0.28414 l -12.90351,-11.71492 v 11.13589 h -3.74116 V 6.1730694 h 3.74116 V 27.229519 l 12.84592,-11.69132 h 0.34173 v 4.46903 z M 70.149754,39.885499 h 19.089169 v -3.76649 H 74.036975 V 7.2797794 H 70.149754 V 39.885499 z m 32.286536,-24.29769 c -5.864745,0 -11.200417,4.76305 -11.200417,12.4355 0,7.45145 4.894024,12.39144 11.905037,12.39144 3.13021,0 6.04029,-0.78858 8.6416,-2.68475 v -4.0227 c -2.73349,2.29271 -5.78078,3.26205 -8.51514,3.26205 -4.224095,0 -7.952074,-2.61276 -8.295191,-7.50644 h 17.825461 c 0.0444,-0.48415 0.13791,-1.52772 0.13791,-1.92479 0,-7.84903 -4.72333,-11.95031 -10.49926,-11.95031 z m 0.0378,3.40238 c 3.3075,0 6.67102,2.14197 6.80234,7.21328 H 94.972179 c 0.220823,-3.92417 3.22371,-7.21328 7.501921,-7.21328 z m 62.77491,-3.40238 c -3.17461,0 -5.46733,1.67638 -6.83373,4.14516 -1.14783,-2.64537 -3.26326,-4.14516 -6.65957,-4.14516 -2.95431,0 -5.15821,1.72027 -6.34906,4.01298 h -0.0888 l -0.43835,-3.52762 H 141.925 v 23.81233 h 3.7906 v -15.03768 c 0,-2.9106 1.80804,-5.64427 5.1138,-5.64427 3.22059,0 4.6314,1.89687 4.6314,5.3355 v 15.34628 h 3.79042 v -15.30205 c 0,-2.77842 1.85401,-5.37973 5.07304,-5.37973 3.26153,0 4.67233,1.89687 4.67233,5.3355 v 15.34628 h 3.79373 v -15.87483 c 0,-4.98336 -2.33869,-8.42269 -7.54131,-8.42269 z m 22.85549,0 c -5.68712,0 -10.98029,4.80694 -10.98029,12.4355 0,7.53974 5.29317,12.39144 10.98029,12.39144 3.57203,0 6.92393,-1.67639 8.73041,-4.98423 h 0.0444 l 0.44182,4.45515 h 3.08754 v -23.8125 h -3.08754 l -0.44182,4.45394 h -0.0444 c -1.8063,-3.26292 -5.15838,-4.9393 -8.73041,-4.9393 z m 0.70636,3.52762 c 4.4966,0 7.89291,3.61592 7.89291,8.86382 0,5.24633 -3.39631,8.86312 -7.89291,8.86312 -4.40953,0 -7.89293,-3.57238 -7.89293,-8.81906 0,-5.33584 3.4834,-8.90788 7.89293,-8.90788 z m 27.76442,-3.30714 c -2.07432,0 -5.20453,0.97054 -6.83685,4.05722 h -0.0427 l -0.39741,-3.79234 h -3.04157 v 23.81233 h 3.79043 v -13.71395 c 0,-5.51191 4.45394,-7.21987 8.11461,-6.4698 v -3.76128 c -0.48449,-0.0878 -0.97072,-0.13218 -1.58653,-0.13218 z m -79.53598,-0.27009 h -0.30201 l -9.95058,9.92318 -9.93098,-9.92318 h -0.30218 v 4.80868 l 7.65475,7.65995 -7.65475,7.60878 v 4.84892 h 0.30651 l 9.88068,-9.96828 9.99013,9.96828 h 0.3086 v -4.88622 l -7.72205,-7.6433 7.72205,-7.77583 v -4.62098 z M 238.84981,6.6981494 v -0.52508 h 4.13355 v 0.52508 h -1.75393 v 4.1578296 h -0.62552 V 6.6981494 h -1.7541 z m 6.22747,-0.52508 1.78341,3.9356096 1.78862,-3.9356096 H 249.5 v 4.6829096 h -0.58649 V 6.9540094 h -0.0114 l -1.77023,3.9019696 h -0.53376 l -1.77041,-3.9021396 h -0.01 v 3.9021396 h -0.59117 V 6.1730694 h 0.85068 z" id="path3011" inkscape:connector-curvature="0" style="fill:#32323c"/>
<path style="fill:#008a44" d="m 49.671633,40.047689 0,-39.54768959 -9.623946,0 -14.96224,14.96142959 z" id="polygon3003" inkscape:connector-curvature="0" sodipodi:nodetypes="ccccc"/></svg>